<svg id="visual" viewBox="0 0 960 540" width="960" height="540" xmlns="http://www.w3.org/2000/svg" xmlns:xlink="http://www.w3.org/1999/xlink" version="1.1"><rect x="0" y="0" width="960" height="540" fill="#A8A89E"></rect><defs><linearGradient id="grad1_0" x1="43.8%" y1="0%" x2="100%" y2="100%"><stop offset="14.444444444444446%" stop-color="#a8a89e" stop-opacity="1"></stop><stop offset="85.55555555555554%" stop-color="#a8a89e" stop-opacity="1"></stop></linearGradient></defs><defs><linearGradient id="grad2_0" x1="0%" y1="0%" x2="56.3%" y2="100%"><stop offset="14.444444444444446%" stop-color="#a8a89e" stop-opacity="1"></stop><stop offset="85.55555555555554%" stop-color="#a8a89e" stop-opacity="1"></stop></linearGradient></defs><g transform="translate(960, 0)"><path d="M0 486C-50.7 440.5 -101.4 395 -152.7 368.6C-204 342.3 -255.9 335.1 -309.7 309.7C-363.5 284.3 -419.3 240.6 -449 186C-478.7 131.3 -482.4 65.7 -486 0L0 0Z" fill="#009473"></path></g><g transform="translate(0, 540)"><path d="M0 -486C46.2 -442.7 92.3 -399.5 159.2 -384.3C226.1 -369.2 313.6 -382.2 343.7 -343.7C373.7 -305.1 346.2 -215.1 360.3 -149.2C374.4 -83.4 430.2 -41.7 486 0L0 0Z" fill="#009473"></path></g></svg>